<svg id="Layer_1" data-name="Layer 1" xmlns="http://www.w3.org/2000/svg" viewBox="0 0 433.3 461.71"><defs><style>.cls-1{fill:none;stroke:#c1272d;stroke-miterlimit:10;stroke-width:4px;}</style></defs><title>Promo</title><path class="cls-1" d="M411.23,81a91.24,91.24,0,0,0-9-16.18q-1.74-3.72-13.73-15.71C368.82,32,357.15,18.61,314.6,16.78c-14.94-.64-43.74,2.42-64.51,16.36-20.92,14-38.82,32.74-46.09,46.09-20.91,38.4-17.47,70.09-16.38,74.51q0,5.13,9.78,9.55c12.64,4.89,42.72,5,42.72,2.91a3.71,3.71,0,0,0-.12-.93q-13.62-19.9-13.62-39.46c0-15.91,4.7-36.23,16.88-50.28,6.29-6.67,22.47-30.16,75.39-30.16,32.72,0,69.87,29,69.87,62.42A60.48,60.48,0,0,1,328,168.27c-33.4,0-60.48-21.22-60.48-54.62,0-22,11.55-47.22,42.55-50.64-29.72-7.68-47.27,10-50.78,16.5-13.67,25.28-11.95,62-18.77,102C227.15,260,208.41,352,168.79,400.69c-18.7,23-65.84,19.25-67.56,19.25a60.48,60.48,0,0,1,0-121c33.41,0,61.92,27.11,60.48,60.48-1.38,32.21-29.34,51.85-29.34,51.85s27.32-7.48,37.49-30c30.23-66.8-34-109.24-70.34-109.24-27.38,0-48.86,10.95-68.17,34.85-11,13.56-18.24,39-14.83,62.45,3.14,21.56,17,39.87,25,47.86C61.2,434.34,89.72,445,117.66,445c60.17,0,84.35-27.24,100.71-57.4,12.59-23.21,49.3-181.52,56.28-209.54.34,0,19.75,13.55,34.84,15.13,45,4.73,72.33-11.71,92.19-35.15q15.94-20.72,15.95-44.47v-2.67Q417.63,97.05,411.23,81Z"/></svg>