<svg id="Layer_1" data-name="Layer 1" xmlns="http://www.w3.org/2000/svg" viewBox="0 0 37 37"><defs><style>.cls-1{fill:#fff;}.cls-2{fill:#c1272d;}</style></defs><title>Promo</title><circle class="cls-1" cx="18.5" cy="18.5" r="18.5"/><path class="cls-2" d="M33.65,21.49c.33-1.08-1-1.52-1.95-1.69a7.22,7.22,0,0,0,1.92,1.76Z"/><path class="cls-2" d="M13.37,16a.47.47,0,0,1,.25.07,14.78,14.78,0,0,1,5.47,7.09A19.7,19.7,0,0,1,20.21,29v.3c0,.64,1.08,1,2.93,1.11a42.68,42.68,0,0,0,8.14-.79A44.42,44.42,0,0,0,33.41,22h0a6.63,6.63,0,0,1-2.24-2.22,1.33,1.33,0,0,1-.09-.37c0-.41-1-.7-2.5-.76h-.77a3.85,3.85,0,0,1-2.53.89,4.21,4.21,0,0,1-2.77-1.34C19.89,15.57,11.25,6.82,11,6.57a.27.27,0,0,0-.13,0c-.14,0-.52.09-.94,1.08-.1.25-.24.53-.38.82-.82,1.68-2,4-.2,6.63,2,3,1.1,12.61.92,14.26l1.2.08c0-2,.19-12,1.49-13.25A.53.53,0,0,1,13.37,16Z"/></svg>