<svg id="Layer_1" data-name="Layer 1" xmlns="http://www.w3.org/2000/svg" viewBox="0 0 37 37"><defs><style>.cls-1{fill:#fff;}.cls-2{fill:#ec1c24;}</style></defs><title>Promo</title><circle class="cls-1" cx="18.5" cy="18.5" r="18.5"/><path class="cls-2" d="M23.83,24.88a1,1,0,0,0-2,.34,1,1,0,0,0-2-.33l-.06.13a1.06,1.06,0,0,0,.68,1.32,1.22,1.22,0,0,0,.32,0,1,1,0,0,0,1-.72.75.75,0,0,0,0-.16s0,0,0,0,0,0,0,0l0,.16a1,1,0,0,0,2-.64A.59.59,0,0,0,23.83,24.88Z"/><path class="cls-2" d="M23.9,7.81a.27.27,0,0,0-.07.08,1,1,0,0,0,.07,1.39,1,1,0,0,0,.74.31,1,1,0,0,0,.67-.26l.07-.05A1,1,0,1,0,23.9,7.81Z"/><path class="cls-2" d="M18.29,7.84a1.05,1.05,0,0,0,0,1.48l.06,0a1.07,1.07,0,0,0,.67.25,1,1,0,0,0,.74-.31,1,1,0,0,0,.07-1.4s0,0-.07-.08A1.05,1.05,0,0,0,18.29,7.84Z"/><path class="cls-2" d="M27,13.22h0a1.06,1.06,0,0,0-.85,1.18,1,1,0,0,0,1,.89h.15a1,1,0,1,0-.3-2.06Z"/><path class="cls-2" d="M26.82,23a1,1,0,0,0-.42-1.41l0,0a1,1,0,0,0-1,1.82l0,0a1,1,0,0,0,.5.13A1,1,0,0,0,26.82,23Z"/><path class="cls-2" d="M27.31,17.46h0A1,1,0,0,0,27,19.52h.19a1,1,0,0,0,1-.9h0A1,1,0,0,0,27.31,17.46Z"/><path class="cls-2" d="M27.71,20.87A1,1,0,0,0,27,19.56h0a1,1,0,0,0-1.27.7,1.06,1.06,0,0,0,.65,1.29l0,0a1.1,1.1,0,0,0,.31,0A1.06,1.06,0,0,0,27.71,20.87Z"/><path class="cls-2" d="M28.36,16.37v0a1,1,0,0,0-1.05-1h0a1,1,0,0,0-1,1v0a1,1,0,0,0,1,1h0a1,1,0,0,0,1.05-1Z"/><path class="cls-2" d="M25.4,25a1.06,1.06,0,0,0,0-1.48l-.07-.06a1,1,0,0,0-1.47,1.46l.06.08a1.06,1.06,0,0,0,.74.3A1,1,0,0,0,25.4,25Z"/><path class="cls-2" d="M19.06,25.26a1.08,1.08,0,0,0,.74-.3l.06-.08a1,1,0,0,0-1.48-1.45l-.06.05a1,1,0,0,0,.74,1.78Z"/><path class="cls-2" d="M23.18,6.43a1,1,0,0,0-1.31.68l0,.16s0,0,0,0,0,0,0,0l0-.16a1,1,0,0,0-2,.66.75.75,0,0,0,.06.13,1,1,0,0,0,.93.58,1.24,1.24,0,0,0,.33,0,1.06,1.06,0,0,0,.71-.89,1,1,0,0,0,2,.32l.06-.13A1.05,1.05,0,0,0,23.18,6.43Z"/><path class="cls-2" d="M16.39,17.45h0a1,1,0,0,0,0-2.08h0a1,1,0,0,0,0,2.09Z"/><path class="cls-2" d="M16,11.92a1,1,0,0,0,.69,1.31h0a1.26,1.26,0,0,0,.27,0,1,1,0,0,0,.35-2l0,0A1.05,1.05,0,0,0,16,11.92Z"/><path class="cls-2" d="M16.39,15.33h.15a1.05,1.05,0,0,0,1-.9,1,1,0,0,0-.85-1.17h0a1,1,0,0,0-1.18.89h0A1,1,0,0,0,16.39,15.33Z"/><path class="cls-2" d="M16.54,19.55h.18a1,1,0,0,0-.29-2.07h0a1.06,1.06,0,0,0-.88,1.19A1,1,0,0,0,16.54,19.55Z"/><path class="cls-2" d="M17,21.61a1.1,1.1,0,0,0,.31,0l0,0A1,1,0,0,0,18,20.26a1,1,0,0,0-1.26-.69h0a1,1,0,0,0,.31,2Z"/><path class="cls-2" d="M17.81,23.56a1.11,1.11,0,0,0,.5-.12l.05,0a1,1,0,0,0-1-1.82l-.05,0a1,1,0,0,0,.5,2Z"/><path class="cls-2" d="M26.39,11.19l0,0a1,1,0,0,0,.35,2,.84.84,0,0,0,.27,0h0a1,1,0,1,0-.62-2Z"/><path class="cls-2" d="M25.39,9.32l-.06,0a1,1,0,0,0,.56,1.92,1.13,1.13,0,0,0,.44-.1l.06,0a1.05,1.05,0,0,0,.41-1.42A1,1,0,0,0,25.39,9.32Z"/><path class="cls-2" d="M16.87,9.78a1.05,1.05,0,0,0,.43,1.42l.05,0a1.06,1.06,0,0,0,.44.11,1,1,0,0,0,.55-1.93l-.05,0A1.05,1.05,0,0,0,16.87,9.78Z"/><path class="cls-2" d="M21.85,26.42l2.86,2.86-2.86,2.85L19,29.28Z"/></svg>