<svg id="Layer_1" data-name="Layer 1" xmlns="http://www.w3.org/2000/svg" viewBox="0 0 37 37"><defs><style>.cls-1{fill:#fff;}.cls-2{fill:#c1272d;}</style></defs><title>Promo</title><circle class="cls-1" cx="18.5" cy="18.5" r="18.5"/><path class="cls-2" d="M15,10.51a2.09,2.09,0,0,1,.38,3.63s4.9-2.3,1.24-5.16c-3.26-2.55-1.5-4,.35-5.5C16.93,3.48,8.4,6.45,15,10.51Z"/><path class="cls-2" d="M20.1,10.51a2.08,2.08,0,0,1,.38,3.63s4.9-2.3,1.24-5.16c-3.26-2.55-1.5-4,.35-5.5C22.07,3.48,13.54,6.45,20.1,10.51Z"/><path class="cls-2" d="M30.23,16.92a10.33,10.33,0,0,0-.46-1.36H7.52a10.77,10.77,0,0,0-.85,4.22,12.1,12.1,0,0,0,12,11.88A12.35,12.35,0,0,0,29.79,24l.38,0A3.68,3.68,0,0,0,34,20.48,3.67,3.67,0,0,0,30.23,16.92Zm-.06,6h0a11.45,11.45,0,0,0,.45-3.17A11.89,11.89,0,0,0,30.46,18a2.48,2.48,0,1,1-.29,5Z"/></svg>