<svg id="Layer_1" data-name="Layer 1" xmlns="http://www.w3.org/2000/svg" viewBox="0 0 440.11 468.96"><defs><style>.cls-1{fill:#c1272d;}</style></defs><title>Promo</title><path class="cls-1" d="M414.63,84.62a91.5,91.5,0,0,0-9-16.18q-1.76-3.73-13.74-15.72C372.22,35.65,360.56,22.23,318,20.41c-14.94-.64-43.74,2.41-64.51,16.35-20.92,14-38.82,32.74-46.09,46.09-20.91,38.41-17.47,70.09-16.38,74.52q0,5.12,9.78,9.54c12.65,4.89,42.72,5,42.72,2.91a3.71,3.71,0,0,0-.12-.93q-13.62-19.9-13.62-39.46c0-15.91,4.7-36.23,16.88-50.28C253,72.48,269.14,49,322.05,49c32.72,0,69.87,29,69.87,62.42a60.48,60.48,0,0,1-60.48,60.48C298,171.9,271,150.68,271,117.27c0-22,11.55-47.22,42.56-50.63-29.73-7.69-47.28,10-50.78,16.5-13.68,25.27-12,62-18.78,102-13.41,78.53-32.15,170.49-71.77,219.19-18.7,23-65.84,19.24-67.55,19.24a60.48,60.48,0,0,1,0-121c33.4,0,61.91,27.11,60.48,60.48-1.39,32.21-29.35,51.86-29.35,51.86s27.32-7.49,37.49-30c30.24-66.81-34-109.25-70.34-109.25-27.38,0-48.86,11-68.17,34.85-10.95,13.56-18.24,39-14.83,62.45,3.14,21.57,17,39.87,25,47.86C64.6,438,93.12,448.63,121.06,448.63c60.17,0,84.35-27.24,100.71-57.39,12.59-23.21,49.3-181.53,56.28-209.54.34,0,19.76,13.54,34.84,15.13,45,4.72,72.33-11.72,92.19-35.16Q421,141,421,117.21v-2.68Q421,100.69,414.63,84.62Z"/></svg>