<svg id="Layer_1" data-name="Layer 1" xmlns="http://www.w3.org/2000/svg" viewBox="0 0 37 37"><defs><style>.cls-1{fill:#fff;}.cls-2{fill:#c1272d;}</style></defs><title>Promo</title><circle class="cls-1" cx="18.5" cy="18.5" r="18.5"/><path class="cls-2" d="M9.88,17.84l-.13,5.52a3.4,3.4,0,0,0,3.31,3.47l9.4.21a3.39,3.39,0,0,0,3.46-3.31L26,18.62c2.34-.57,6.47-2.29,6.51-3.86,0-1.25-1.85-2.38-5.28-3.19l-.17,0-.11.13c-1.12,1.34-4.94,2.2-9.29,2.1-4.16-.1-7.9-1.08-9.09-2.4l-.11-.11-.15,0c-3.08.66-4.78,1.66-4.81,2.81S6.74,17,9.88,17.84Zm16.18-.1v-.1S26.09,17.7,26.06,17.74Z"/></svg>